<svg xmlns="http://www.w3.org/2000/svg" xmlns:xlink="http://www.w3.org/1999/xlink" contentStyleType="text/css" height="195px" preserveAspectRatio="none" style="width:1339px;height:195px;background:#FFFFFF;" version="1.1" viewBox="0 0 1339 195" width="1339px" zoomAndPan="magnify"><defs/><g><!--entity Visitor--><g id="elem_Visitor"><ellipse cx="649.7305" cy="14" fill="#F1F1F1" rx="8" ry="8" style="stroke:#181818;stroke-width:0.5;"/><path d="M649.7305,22 L649.7305,49 M636.7305,30 L662.7305,30 M649.7305,49 L636.7305,64 M649.7305,49 L662.7305,64 " fill="none" style="stroke:#181818;stroke-width:0.5;"/><text fill="#000000" font-family="sans-serif" font-size="14" lengthAdjust="spacing" textLength="44.4609" x="627.5" y="78.4951">Visitor</text></g><g id="elem_U1"><ellipse cx="84.5207" cy="165.6041" fill="#F1F1F1" rx="78.5207" ry="18.1041" style="stroke:#181818;stroke-width:0.5;"/><text fill="#000000" font-family="sans-serif" font-size="14" lengthAdjust="spacing" textLength="114.9053" x="24.8264" y="169.1491">Visit Home Page</text></g><g id="elem_U2"><ellipse cx="305.5035" cy="165.4007" fill="#F1F1F1" rx="107.5035" ry="23.9007" style="stroke:#181818;stroke-width:0.5;"/><text fill="#000000" font-family="sans-serif" font-size="14" lengthAdjust="spacing" textLength="180.4688" x="215.2691" y="168.2474">Navigate to Projects Page</text></g><g id="elem_U3"><ellipse cx="537.4759" cy="165.6952" fill="#F1F1F1" rx="88.9759" ry="20.1952" style="stroke:#181818;stroke-width:0.5;"/><text fill="#000000" font-family="sans-serif" font-size="14" lengthAdjust="spacing" textLength="139.4189" x="467.7664" y="168.5419">View Project Details</text></g><g id="elem_U4"><ellipse cx="762.4337" cy="165.5867" fill="#F1F1F1" rx="100.9337" ry="22.5867" style="stroke:#181818;stroke-width:0.5;"/><text fill="#000000" font-family="sans-serif" font-size="14" lengthAdjust="spacing" textLength="166.1133" x="679.3771" y="168.4334">Navigate to About Page</text></g><g id="elem_U5"><ellipse cx="1005.4152" cy="165.283" fill="#F1F1F1" rx="106.9152" ry="23.783" style="stroke:#181818;stroke-width:0.5;"/><text fill="#000000" font-family="sans-serif" font-size="14" lengthAdjust="spacing" textLength="179.1904" x="915.82" y="168.1297">Navigate to Contact Page</text></g><g id="elem_U6"><ellipse cx="1240.7425" cy="165.5485" fill="#F1F1F1" rx="93.2425" ry="21.0485" style="stroke:#181818;stroke-width:0.5;"/><text fill="#000000" font-family="sans-serif" font-size="14" lengthAdjust="spacing" textLength="149.0439" x="1166.2206" y="168.3952">Submit Contact Form</text></g><!--link Visitor to U1--><g id="link_Visitor_U1"><path d="M627.47,48.8 C560.29,61.98 352.13,103.2 180.5,141.5 C166.11,144.71 156.3947,146.9615 142.0847,150.3915 " fill="none" id="Visitor-to-U1" style="stroke:#181818;stroke-width:1;"/><polygon fill="#181818" points="136.25,151.79,145.9345,153.582,141.1123,150.6245,144.0697,145.8024,136.25,151.79" style="stroke:#181818;stroke-width:1;"/></g><!--link Visitor to U2--><g id="link_Visitor_U2"><path d="M627.46,52.19 C574.52,70.66 444.5452,115.9936 367.2652,142.9536 " fill="none" id="Visitor-to-U2" style="stroke:#181818;stroke-width:1;"/><polygon fill="#181818" points="361.6,144.93,371.4153,145.7422,366.321,143.283,368.7802,138.1887,361.6,144.93" style="stroke:#181818;stroke-width:1;"/></g><!--link Visitor to U3--><g id="link_Visitor_U3"><path d="M627.37,68.21 C606.21,90.89 578.7934,120.2532 559.2634,141.1832 " fill="none" id="Visitor-to-U3" style="stroke:#181818;stroke-width:1;"/><polygon fill="#181818" points="555.17,145.57,564.2346,141.7187,558.5812,141.9143,558.3855,136.2608,555.17,145.57" style="stroke:#181818;stroke-width:1;"/></g><!--link Visitor to U4--><g id="link_Visitor_U4"><path d="M671.56,67.92 C692.11,89.75 718.3864,117.6521 738.2864,138.7821 " fill="none" id="Visitor-to-U4" style="stroke:#181818;stroke-width:1;"/><polygon fill="#181818" points="742.4,143.15,739.1415,133.8558,738.972,139.5101,733.3177,139.3406,742.4,143.15" style="stroke:#181818;stroke-width:1;"/></g><!--link Visitor to U5--><g id="link_Visitor_U5"><path d="M671.5,51.92 C725.85,70.23 862.1543,116.1835 942.4043,143.2335 " fill="none" id="Visitor-to-U5" style="stroke:#181818;stroke-width:1;"/><polygon fill="#181818" points="948.09,145.15,940.8391,138.4848,943.3519,143.5529,938.2838,146.0657,948.09,145.15" style="stroke:#181818;stroke-width:1;"/></g><!--link Visitor to U6--><g id="link_Visitor_U6"><path d="M671.57,48.89 C739.82,62.49 953.59,105.17 1130.5,141.5 C1144.74,144.42 1154.1269,146.3627 1168.6269,149.3927 " fill="none" id="Visitor-to-U6" style="stroke:#181818;stroke-width:1;"/><polygon fill="#181818" points="1174.5,150.62,1166.5085,144.8636,1169.6057,149.5973,1164.8721,152.6945,1174.5,150.62" style="stroke:#181818;stroke-width:1;"/></g><!--SRC=[RO_B2i9034NtynMX-oxiQoc88gwa8BfFXr16h859Hd_VQYsTWQx2IGwNNBJA7cvEt3YD2K8MXI3xRU340q6BFMM00jVDSZ_Zo_Me1ChGUhwJLOdC8awYzwp0WHJTGoQfN8_RTHmqoghMjJq_5Mqireju2Tqm_ZyxH_R3v3J6_Cj2dc-_bH8iKYnJh5AiKsm-]--></g></svg>